<?xml version="1.0" encoding="UTF-8" standalone="no"?>
<!-- Created with Inkscape (http://www.inkscape.org/) -->

<svg
   width="231.93103"
   height="231.93103"
   viewBox="0 0 231.93103 231.93103"
   version="1.1"
   id="svg1"
   xml:space="preserve"
   inkscape:version="1.4.3 (0d15f75, 2025-12-25)"
   sodipodi:docname="Branding.svg"
   inkscape:export-filename="dibujo.png"
   inkscape:export-xdpi="96"
   inkscape:export-ydpi="96"
   xmlns:inkscape="http://www.inkscape.org/namespaces/inkscape"
   xmlns:sodipodi="http://sodipodi.sourceforge.net/DTD/sodipodi-0.dtd"
   xmlns:xlink="http://www.w3.org/1999/xlink"
   xmlns="http://www.w3.org/2000/svg"
   xmlns:svg="http://www.w3.org/2000/svg"><sodipodi:namedview
     id="namedview1"
     pagecolor="#ffffff"
     bordercolor="#000000"
     borderopacity="0.25"
     inkscape:showpageshadow="2"
     inkscape:pageopacity="0.0"
     inkscape:pagecheckerboard="0"
     inkscape:deskcolor="#d1d1d1"
     inkscape:document-units="px"
     inkscape:zoom="0.5"
     inkscape:cx="187"
     inkscape:cy="399"
     inkscape:window-width="1920"
     inkscape:window-height="1017"
     inkscape:window-x="-8"
     inkscape:window-y="-8"
     inkscape:window-maximized="1"
     inkscape:current-layer="layer1"
     showguides="false"><inkscape:page
       x="0"
       y="0"
       width="231.93103"
       height="231.93103"
       id="page2"
       margin="0"
       bleed="0" /></sodipodi:namedview><defs
     id="defs1"><linearGradient
       id="linearGradient3"
       inkscape:collect="always"><stop
         style="stop-color:#ffffff;stop-opacity:1;"
         offset="0"
         id="stop2" /><stop
         style="stop-color:#2964a8;stop-opacity:1;"
         offset="1"
         id="stop3" /></linearGradient><linearGradient
       inkscape:collect="always"
       xlink:href="#linearGradient3"
       id="linearGradient320"
       gradientUnits="userSpaceOnUse"
       gradientTransform="matrix(0.813445,0,0,0.813445,510.91759,-259.3233)"
       x1="89.232933"
       y1="560.87573"
       x2="284.11969"
       y2="560.87573" /></defs><g
     inkscape:label="Capa 1"
     inkscape:groupmode="layer"
     id="layer1"
     transform="translate(-361.38684,-340.91168)"><g
       id="g320"
       inkscape:label="Logo"
       inkscape:export-filename="logo2.png"
       inkscape:export-xdpi="1000"
       inkscape:export-ydpi="1000"
       transform="translate(-184.49957,258.8873)"><circle
         style="fill:none;fill-opacity:1;stroke:none;stroke-width:1.802;stroke-dasharray:none;stroke-opacity:1"
         id="path320"
         cx="661.85193"
         cy="197.9899"
         r="115.96552" /><path
         id="path1"
         style="fill:url(#linearGradient320);fill-opacity:1;stroke:none;stroke-width:1.066;stroke-opacity:1"
         d="m 583.50432,139.49174 v 5.38453 h 11.12335 v 2.83448 h -11.12335 v 4.66093 h 12.16382 l 8.81783,-7.38813 v -0.0225 h 0.0273 l 0.002,-0.002 0.14971,0.002 h 8.97501 a 4.2764187,4.3667658 0 0 1 4.09205,-3.09895 4.2764187,4.3667658 0 0 1 4.27668,4.36649 4.2764187,4.3667658 0 0 1 -4.27668,4.36651 4.2764187,4.3667658 0 0 1 -3.99223,-2.79957 h -8.25394 l -8.728,7.39813 v 0.0127 h -0.0149 l -0.002,0.002 -0.002,-0.002 h -13.23436 v 4.05462 h 13.77071 l 6.5198,-4.46132 v -0.009 h 9.16965 a 4.2764187,4.3667658 0 0 1 4.12446,-3.22124 4.2764187,4.3667658 0 0 1 4.27669,4.36651 4.2764187,4.3667658 0 0 1 -4.27669,4.3665 4.2764187,4.3667658 0 0 1 -3.94233,-2.6773 h -9.35178 v -0.002 l -6.50734,4.47378 v 0.002 h -0.006 -0.002 -13.77567 v 1.48712 h 37.93643 v 90.58865 h 9.13473 l -5.89851,-9.83835 0.006,-0.002 -0.0149,-24.92399 a 4.2764187,4.3667658 0 0 1 -2.76212,-4.08454 4.2764187,4.3667658 0 0 1 4.27668,-4.36651 4.2764187,4.3667658 0 0 1 4.27667,4.36651 4.2764187,4.3667658 0 0 1 -2.98919,4.16189 l -0.0249,24.01576 6.35513,10.67171 h 7.57277 l -8.51842,-14.20484 0.009,-0.006 -0.0149,-40.29405 a 4.2764187,4.3667658 0 0 1 -2.85446,-4.11701 4.2764187,4.3667658 0 0 1 4.27668,-4.36898 4.2764187,4.3667658 0 0 1 4.27668,4.36898 4.2764187,4.3667658 0 0 1 -2.89434,4.13197 4.2764187,4.3667658 0 0 1 -0.002,0 l -0.0249,39.45072 8.97004,15.03821 h 9.98057 v -10.59437 l -8.15911,-13.14692 h -0.01 l -0.0128,-47.32537 -0.0199,0.0225 -7.36566,-6.8841 h -0.0175 v -1.08039 l -0.0225,-0.0175 h 0.0225 l 0.006,-16.71497 h 0.0398 l -0.0127,-0.0129 22.24917,-18.92817 H 648.4464 l -16.16353,19.39475 -0.0599,6.63708 a 4.2764187,4.3667658 0 0 1 2.83445,4.11199 4.2764187,4.3667658 0 0 1 -4.27665,4.36651 4.2764187,4.3667658 0 0 1 -4.27667,-4.36651 4.2764187,4.3667658 0 0 1 2.88188,-4.12945 l 0.0723,-7.7 h 0.008 l 0.38924,-0.43667 8.65565,-10.38479 -9.50399,-7.49291 z m 82.21497,0 -23.92343,20.32294 -0.0424,15.1605 4.64095,4.37648 -0.002,-9.0948 a 4.2764187,4.3667658 0 0 1 -2.7721,-4.08953 4.2764187,4.3667658 0 0 1 4.27668,-4.3665 4.2764187,4.3667658 0 0 1 2.18074,0.6113 l 19.09035,-16.38561 0.045,0.0474 58.94777,-0.15969 a 4.2764187,4.3667658 0 0 1 3.92236,-2.6299 4.2764187,4.3667658 0 0 1 4.27668,4.36652 4.2764187,4.3667658 0 0 1 -4.27668,4.36899 4.2764187,4.3667658 0 0 1 -4.12695,-3.22373 l -57.74759,0.13225 -4.40145,3.77264 53.57323,-0.15718 v 0.008 l 6.75934,2.79705 a 4.2764187,4.3667658 0 0 1 3.24369,-1.52204 4.2764187,4.3667658 0 0 1 4.27667,4.36649 4.2764187,4.3667658 0 0 1 -4.27667,4.36651 4.2764187,4.3667658 0 0 1 -4.27418,-4.36651 4.2764187,4.3667658 0 0 1 0.002,-0.15969 l -6.25781,-2.60492 -56.39524,0.13972 -10.56443,9.0524 a 4.2764187,4.3667658 0 0 1 0.27696,1.54698 4.2764187,4.3667658 0 0 1 -2.97419,4.15939 l -0.0273,59.22723 5.40697,8.76542 v -74.73452 h 87.45725 v -24.09309 z m -47.94168,5.26726 a 1.6864751,1.6864751 0 0 0 -1.68673,1.68672 1.6864751,1.6864751 0 0 0 1.68673,1.6867 1.6864751,1.6864751 0 0 0 1.68671,-1.6867 1.6864751,1.6864751 0 0 0 -1.68671,-1.68672 z m 114.27008,1.21013 a 1.6864751,1.6864751 0 0 0 -1.68673,1.68672 1.6864751,1.6864751 0 0 0 1.68673,1.68673 1.6864751,1.6864751 0 0 0 1.68672,-1.68673 1.6864751,1.6864751 0 0 0 -1.68672,-1.68672 z m -114.99366,8.28389 a 1.6864751,1.6864751 0 0 0 -1.68672,1.68671 1.6864751,1.6864751 0 0 0 1.68672,1.68672 1.6864751,1.6864751 0 0 0 1.6867,-1.68672 1.6864751,1.6864751 0 0 0 -1.6867,-1.68671 z m 112.2939,2.25809 a 1.6864751,1.6864751 0 0 0 -1.68671,1.68673 1.6864751,1.6864751 0 0 0 1.68671,1.68671 1.6864751,1.6864751 0 0 0 1.68672,-1.68671 1.6864751,1.6864751 0 0 0 -1.68672,-1.68673 z m -81.48887,7.97449 a 1.6864751,1.6864751 0 0 0 -1.68671,1.68671 1.6864751,1.6864751 0 0 0 1.68671,1.68672 1.6864751,1.6864751 0 0 0 1.68671,-1.68672 1.6864751,1.6864751 0 0 0 -1.68671,-1.68671 z m -17.11668,3.46824 a 1.6864751,1.6864751 0 0 0 -1.68424,1.68673 1.6864751,1.6864751 0 0 0 1.68424,1.68671 1.6864751,1.6864751 0 0 0 1.6867,-1.68671 1.6864751,1.6864751 0 0 0 -1.6867,-1.68673 z m 6.48237,11.68726 a 4.2764187,4.3667658 0 0 1 4.27668,4.36649 4.2764187,4.3667658 0 0 1 -1.05295,2.87191 l 1.73911,2.89187 h 0.009 v 0.0175 l 0.01,0.0174 -0.01,0.006 -0.0273,45.21951 5.83863,9.7086 a 4.2764187,4.3667658 0 0 1 0.80594,-0.0774 4.2764187,4.3667658 0 0 1 4.27418,4.36651 4.2764187,4.3667658 0 0 1 -4.27418,4.36648 4.2764187,4.3667658 0 0 1 -4.27667,-4.36648 4.2764187,4.3667658 0 0 1 1.07541,-2.89935 l -6.20045,-10.24256 h -0.006 v -0.008 l -0.006,-0.008 0.006,-0.002 -0.0149,-45.37915 -1.3374,-2.19823 a 4.2764187,4.3667658 0 0 1 -0.83089,0.0823 4.2764187,4.3667658 0 0 1 -4.27416,-4.3665 4.2764187,4.3667658 0 0 1 4.27416,-4.36649 z m -0.0349,2.68476 a 1.6864751,1.6864751 0 0 0 -1.68672,1.68673 1.6864751,1.6864751 0 0 0 1.68672,1.68422 1.6864751,1.6864751 0 0 0 1.68672,-1.68422 1.6864751,1.6864751 0 0 0 -1.68672,-1.68673 z m 26.68307,5.11008 v 5.29966 l 46.96108,-0.15219 a 4.2764187,4.3667658 0 0 1 4.02217,-2.88938 4.2764187,4.3667658 0 0 1 4.27668,4.3665 4.2764187,4.3667658 0 0 1 -4.27668,4.36898 4.2764187,4.3667658 0 0 1 -4.04962,-2.96422 l -28.44213,0.0773 4.88051,5.55918 29.3803,-0.13973 a 4.2764187,4.3667658 0 0 1 3.92983,-2.64735 4.2764187,4.3667658 0 0 1 4.27669,4.36899 4.2764187,4.3667658 0 0 1 -4.27669,4.36651 4.2764187,4.3667658 0 0 1 -4.12196,-3.20625 l -30.58796,0.12225 -0.006,-0.0949 -7.27084,-8.3188 -14.6964,0.0399 v 4.4688 l 10.00804,-0.16218 0.008,-0.006 0.002,0.006 h 0.0225 v 0.035 l 6.42249,9.77597 h 48.17624 v -22.27412 z m 50.94833,4.94287 a 1.6864751,1.6864751 0 0 0 -1.68671,1.68671 1.6864751,1.6864751 0 0 0 1.68671,1.68672 1.6864751,1.6864751 0 0 0 1.6867,-1.68672 1.6864751,1.6864751 0 0 0 -1.6867,-1.68671 z m -80.58564,1.49209 a 1.6864751,1.6864751 0 0 0 -1.68673,1.68422 1.6864751,1.6864751 0 0 0 1.68673,1.68671 1.6864751,1.6864751 0 0 0 1.68671,-1.68671 1.6864751,1.6864751 0 0 0 -1.68671,-1.68422 z m 86.28453,7.13112 a 1.6864751,1.6864751 0 0 0 -1.68672,1.68671 1.6864751,1.6864751 0 0 0 1.68672,1.68421 1.6864751,1.6864751 0 0 0 1.68672,-1.68421 1.6864751,1.6864751 0 0 0 -1.68672,-1.68671 z m -48.14628,1.8015 -8.50094,0.11467 v 6.79177 h 13.02215 z m -46.23001,10.83889 a 1.6864751,1.6864751 0 0 0 -1.6867,1.68672 1.6864751,1.6864751 0 0 0 1.6867,1.68423 1.6864751,1.6864751 0 0 0 1.68673,-1.68423 1.6864751,1.6864751 0 0 0 -1.68673,-1.68672 z m 37.48206,3.24119 0.0174,3.23369 12.86496,12.48821 a 4.2764187,4.3667658 0 0 1 2.17078,-0.60384 4.2764187,4.3667658 0 0 1 4.27665,4.36652 4.2764187,4.3667658 0 0 1 -0.48904,2.02356 l 10.02799,9.73356 38.39525,-0.13725 a 4.2764187,4.3667658 0 0 1 4.05713,-2.98668 4.2764187,4.3667658 0 0 1 4.27665,4.36649 4.2764187,4.3667658 0 0 1 -4.27665,4.3665 4.2764187,4.3667658 0 0 1 -4.0147,-2.8694 l -39.59043,0.12225 -0.002,-0.0425 -0.0375,0.0399 -10.91874,-10.61186 a 4.2764187,4.3667658 0 0 1 -1.70419,0.3618 4.2764187,4.3667658 0 0 1 -4.27668,-4.36649 4.2764187,4.3667658 0 0 1 0.27446,-1.542 l -11.01106,-10.70416 0.0375,7.07122 25.04125,23.09504 v 0.0549 h 0.0599 l 0.002,0.002 0.002,-0.002 h 52.907 v -10.77152 l -17.73548,0.0574 a 4.2764187,4.3667658 0 0 1 -4.06708,3.01662 4.2764187,4.3667658 0 0 1 -4.05959,-2.99167 l -20.23812,0.0622 -0.002,-0.0424 -0.0374,0.0399 -27.60129,-26.82527 z m 8.46103,0.008 24.67944,23.96338 19.12778,-0.0698 a 4.2764187,4.3667658 0 0 1 4.01967,-2.87192 4.2764187,4.3667658 0 0 1 4.0072,2.84197 l 17.79536,-0.0648 v -10.91848 h -39.50065 l -13.06705,-12.86247 -6.44994,-0.008 18.52643,16.49289 29.09587,-0.14221 a 4.2764187,4.3667658 0 0 1 3.98971,-2.79705 4.2764187,4.3667658 0 0 1 4.27669,4.36648 4.2764187,4.3667658 0 0 1 -4.27669,4.36899 4.2764187,4.3667658 0 0 1 -4.07956,-3.05653 l -30.15877,0.12469 -0.002,-0.0299 -21.67281,-19.32989 z m 62.18892,16.24837 a 1.6864751,1.6864751 0 0 0 -1.68672,1.68674 1.6864751,1.6864751 0 0 0 1.68672,1.68671 1.6864751,1.6864751 0 0 0 1.68674,-1.68671 1.6864751,1.6864751 0 0 0 -1.68674,-1.68674 z m -55.6342,1.54701 a 1.6864751,1.6864751 0 0 0 -1.68671,1.68671 1.6864751,1.6864751 0 0 0 1.68671,1.68673 1.6864751,1.6864751 0 0 0 1.68672,-1.68673 1.6864751,1.6864751 0 0 0 -1.68672,-1.68671 z m 41.23475,5.911 a 1.6864751,1.6864751 0 0 0 -1.68674,1.6867 1.6864751,1.6864751 0 0 0 1.68674,1.68672 1.6864751,1.6864751 0 0 0 1.6867,-1.68672 1.6864751,1.6864751 0 0 0 -1.6867,-1.6867 z m -71.09912,6.74935 a 1.6864751,1.6864751 0 0 0 -1.68671,1.68671 1.6864751,1.6864751 0 0 0 1.68671,1.68673 1.6864751,1.6864751 0 0 0 1.68672,-1.68673 1.6864751,1.6864751 0 0 0 -1.68672,-1.68671 z m 86.13484,0.33936 a 1.6864751,1.6864751 0 0 0 -1.68671,1.68669 1.6864751,1.6864751 0 0 0 1.68671,1.68423 1.6864751,1.6864751 0 0 0 1.68672,-1.68423 1.6864751,1.6864751 0 0 0 -1.68672,-1.68669 z"
         inkscape:label="logo-vectorizado"
         inkscape:export-filename="rect254.png"
         inkscape:export-xdpi="1000"
         inkscape:export-ydpi="1000" /></g></g></svg>
