<?xml version="1.0" encoding="UTF-8" standalone="no"?>
<!-- Created with Inkscape (http://www.inkscape.org/) -->

<svg
   width="954.59424"
   height="391.73706"
   viewBox="0 0 954.59424 391.73706"
   version="1.1"
   id="svg1"
   xml:space="preserve"
   xmlns:xlink="http://www.w3.org/1999/xlink"
   xmlns="http://www.w3.org/2000/svg"
   xmlns:svg="http://www.w3.org/2000/svg"><defs
     id="defs1"><linearGradient
       id="linearGradient6"><stop
         style="stop-color:#ffffff;stop-opacity:1;"
         offset="0"
         id="stop5" /><stop
         style="stop-color:#2964a8;stop-opacity:1;"
         offset="1"
         id="stop6" /></linearGradient><linearGradient
       id="linearGradient4"><stop
         style="stop-color:#2964a8;stop-opacity:1;"
         offset="0"
         id="stop3" /><stop
         style="stop-color:#ffffff;stop-opacity:1;"
         offset="1"
         id="stop4" /></linearGradient><linearGradient
       xlink:href="#linearGradient6"
       id="linearGradient2"
       gradientUnits="userSpaceOnUse"
       gradientTransform="matrix(0.813445,0,0,0.813445,120.59465,64.531604)"
       x1="89.232933"
       y1="560.87573"
       x2="284.11969"
       y2="560.87573" /><linearGradient
       xlink:href="#linearGradient4"
       id="linearGradient3"
       gradientUnits="userSpaceOnUse"
       x1="1428.6696"
       y1="805.62506"
       x2="1484.1576"
       y2="805.62506" /></defs><g
     id="layer1"
     transform="translate(-135.74011,-1186.926)"><g
       id="g2"
       transform="translate(82,856)"><path
         id="path1"
         style="fill:url(#linearGradient2);fill-opacity:1;stroke:none;stroke-width:1.066;stroke-opacity:1"
         d="m 193.18138,463.34664 v 5.38453 h 11.12335 v 2.83448 h -11.12335 v 4.66093 h 12.16382 l 8.81783,-7.38813 v -0.0225 h 0.0273 l 0.002,-0.002 0.14971,0.002 h 8.97501 a 4.2764187,4.3667658 0 0 1 4.09205,-3.09895 4.2764187,4.3667658 0 0 1 4.27668,4.36649 4.2764187,4.3667658 0 0 1 -4.27668,4.36651 4.2764187,4.3667658 0 0 1 -3.99223,-2.79957 h -8.25394 l -8.728,7.39813 v 0.0127 h -0.0149 l -0.002,0.002 -0.002,-0.002 h -13.23436 v 4.05462 h 13.77071 l 6.5198,-4.46132 v -0.009 h 9.16965 a 4.2764187,4.3667658 0 0 1 4.12446,-3.22124 4.2764187,4.3667658 0 0 1 4.27669,4.36651 4.2764187,4.3667658 0 0 1 -4.27669,4.3665 4.2764187,4.3667658 0 0 1 -3.94233,-2.6773 h -9.35178 v -0.002 l -6.50734,4.47378 v 0.002 h -0.006 -0.002 -13.77567 v 1.48712 h 37.93643 v 90.58865 h 9.13473 l -5.89851,-9.83835 0.006,-0.002 -0.0149,-24.92399 a 4.2764187,4.3667658 0 0 1 -2.76212,-4.08454 4.2764187,4.3667658 0 0 1 4.27668,-4.36651 4.2764187,4.3667658 0 0 1 4.27667,4.36651 4.2764187,4.3667658 0 0 1 -2.98919,4.16189 l -0.0249,24.01576 6.35513,10.67171 h 7.57277 l -8.51842,-14.20484 0.009,-0.006 -0.0149,-40.29405 a 4.2764187,4.3667658 0 0 1 -2.85446,-4.11701 4.2764187,4.3667658 0 0 1 4.27668,-4.36898 4.2764187,4.3667658 0 0 1 4.27668,4.36898 4.2764187,4.3667658 0 0 1 -2.89434,4.13197 4.2764187,4.3667658 0 0 1 -0.002,0 l -0.0249,39.45072 8.97004,15.03821 h 9.98057 v -10.59437 l -8.15911,-13.14692 h -0.01 l -0.0128,-47.32537 -0.0199,0.0225 -7.36566,-6.8841 h -0.0175 v -1.08039 l -0.0225,-0.0175 h 0.0225 l 0.006,-16.71497 h 0.0398 l -0.0127,-0.0129 22.24917,-18.92817 h -12.82775 l -16.16353,19.39475 -0.0599,6.63708 a 4.2764187,4.3667658 0 0 1 2.83445,4.11199 4.2764187,4.3667658 0 0 1 -4.27665,4.36651 4.2764187,4.3667658 0 0 1 -4.27667,-4.36651 4.2764187,4.3667658 0 0 1 2.88188,-4.12945 l 0.0723,-7.7 h 0.008 l 0.38924,-0.43667 8.65565,-10.38479 -9.50399,-7.49291 z m 82.21497,0 -23.92343,20.32294 -0.0424,15.1605 4.64095,4.37648 -0.002,-9.0948 a 4.2764187,4.3667658 0 0 1 -2.7721,-4.08953 4.2764187,4.3667658 0 0 1 4.27668,-4.3665 4.2764187,4.3667658 0 0 1 2.18074,0.6113 l 19.09035,-16.38561 0.045,0.0474 58.94777,-0.15969 a 4.2764187,4.3667658 0 0 1 3.92236,-2.6299 4.2764187,4.3667658 0 0 1 4.27668,4.36652 4.2764187,4.3667658 0 0 1 -4.27668,4.36899 4.2764187,4.3667658 0 0 1 -4.12695,-3.22373 l -57.74759,0.13225 -4.40145,3.77264 53.57323,-0.15718 v 0.008 l 6.75934,2.79705 a 4.2764187,4.3667658 0 0 1 3.24369,-1.52204 4.2764187,4.3667658 0 0 1 4.27667,4.36649 4.2764187,4.3667658 0 0 1 -4.27667,4.36651 4.2764187,4.3667658 0 0 1 -4.27418,-4.36651 4.2764187,4.3667658 0 0 1 0.002,-0.15969 l -6.25781,-2.60492 -56.39524,0.13972 -10.56443,9.0524 a 4.2764187,4.3667658 0 0 1 0.27696,1.54698 4.2764187,4.3667658 0 0 1 -2.97419,4.15939 l -0.0273,59.22723 5.40697,8.76542 v -74.73452 h 87.45725 v -24.09309 z m -47.94168,5.26726 a 1.6864751,1.6864751 0 0 0 -1.68673,1.68672 1.6864751,1.6864751 0 0 0 1.68673,1.6867 1.6864751,1.6864751 0 0 0 1.68671,-1.6867 1.6864751,1.6864751 0 0 0 -1.68671,-1.68672 z m 114.27008,1.21013 a 1.6864751,1.6864751 0 0 0 -1.68673,1.68672 1.6864751,1.6864751 0 0 0 1.68673,1.68673 1.6864751,1.6864751 0 0 0 1.68672,-1.68673 1.6864751,1.6864751 0 0 0 -1.68672,-1.68672 z m -114.99366,8.28389 a 1.6864751,1.6864751 0 0 0 -1.68672,1.68671 1.6864751,1.6864751 0 0 0 1.68672,1.68672 1.6864751,1.6864751 0 0 0 1.6867,-1.68672 1.6864751,1.6864751 0 0 0 -1.6867,-1.68671 z m 112.2939,2.25809 a 1.6864751,1.6864751 0 0 0 -1.68671,1.68673 1.6864751,1.6864751 0 0 0 1.68671,1.68671 1.6864751,1.6864751 0 0 0 1.68672,-1.68671 1.6864751,1.6864751 0 0 0 -1.68672,-1.68673 z m -81.48887,7.97449 a 1.6864751,1.6864751 0 0 0 -1.68671,1.68671 1.6864751,1.6864751 0 0 0 1.68671,1.68672 1.6864751,1.6864751 0 0 0 1.68671,-1.68672 1.6864751,1.6864751 0 0 0 -1.68671,-1.68671 z m -17.11668,3.46824 a 1.6864751,1.6864751 0 0 0 -1.68424,1.68673 1.6864751,1.6864751 0 0 0 1.68424,1.68671 1.6864751,1.6864751 0 0 0 1.6867,-1.68671 1.6864751,1.6864751 0 0 0 -1.6867,-1.68673 z m 6.48237,11.68726 a 4.2764187,4.3667658 0 0 1 4.27668,4.36649 4.2764187,4.3667658 0 0 1 -1.05295,2.87191 l 1.73911,2.89187 h 0.009 v 0.0175 l 0.01,0.0174 -0.01,0.006 -0.0273,45.21951 5.83863,9.7086 a 4.2764187,4.3667658 0 0 1 0.80594,-0.0774 4.2764187,4.3667658 0 0 1 4.27418,4.36651 4.2764187,4.3667658 0 0 1 -4.27418,4.36648 4.2764187,4.3667658 0 0 1 -4.27667,-4.36648 4.2764187,4.3667658 0 0 1 1.07541,-2.89935 l -6.20045,-10.24256 h -0.006 v -0.008 l -0.006,-0.008 0.006,-0.002 -0.0149,-45.37915 -1.3374,-2.19823 a 4.2764187,4.3667658 0 0 1 -0.83089,0.0823 4.2764187,4.3667658 0 0 1 -4.27416,-4.3665 4.2764187,4.3667658 0 0 1 4.27416,-4.36649 z m -0.0349,2.68476 a 1.6864751,1.6864751 0 0 0 -1.68672,1.68673 1.6864751,1.6864751 0 0 0 1.68672,1.68422 1.6864751,1.6864751 0 0 0 1.68672,-1.68422 1.6864751,1.6864751 0 0 0 -1.68672,-1.68673 z m 26.68307,5.11008 v 5.29966 l 46.96108,-0.15219 a 4.2764187,4.3667658 0 0 1 4.02217,-2.88938 4.2764187,4.3667658 0 0 1 4.27668,4.3665 4.2764187,4.3667658 0 0 1 -4.27668,4.36898 4.2764187,4.3667658 0 0 1 -4.04962,-2.96422 l -28.44213,0.0773 4.88051,5.55918 29.3803,-0.13973 a 4.2764187,4.3667658 0 0 1 3.92983,-2.64735 4.2764187,4.3667658 0 0 1 4.27669,4.36899 4.2764187,4.3667658 0 0 1 -4.27669,4.36651 4.2764187,4.3667658 0 0 1 -4.12196,-3.20625 l -30.58796,0.12225 -0.006,-0.0949 -7.27084,-8.3188 -14.6964,0.0399 v 4.4688 l 10.00804,-0.16218 0.008,-0.006 0.002,0.006 h 0.0225 v 0.035 l 6.42249,9.77597 h 48.17624 v -22.27412 z m 50.94833,4.94287 a 1.6864751,1.6864751 0 0 0 -1.68671,1.68671 1.6864751,1.6864751 0 0 0 1.68671,1.68672 1.6864751,1.6864751 0 0 0 1.6867,-1.68672 1.6864751,1.6864751 0 0 0 -1.6867,-1.68671 z m -80.58564,1.49209 a 1.6864751,1.6864751 0 0 0 -1.68673,1.68422 1.6864751,1.6864751 0 0 0 1.68673,1.68671 1.6864751,1.6864751 0 0 0 1.68671,-1.68671 1.6864751,1.6864751 0 0 0 -1.68671,-1.68422 z m 86.28453,7.13112 a 1.6864751,1.6864751 0 0 0 -1.68672,1.68671 1.6864751,1.6864751 0 0 0 1.68672,1.68421 1.6864751,1.6864751 0 0 0 1.68672,-1.68421 1.6864751,1.6864751 0 0 0 -1.68672,-1.68671 z m -48.14628,1.8015 -8.50094,0.11467 v 6.79177 h 13.02215 z m -46.23001,10.83889 a 1.6864751,1.6864751 0 0 0 -1.6867,1.68672 1.6864751,1.6864751 0 0 0 1.6867,1.68423 1.6864751,1.6864751 0 0 0 1.68673,-1.68423 1.6864751,1.6864751 0 0 0 -1.68673,-1.68672 z m 37.48206,3.24119 0.0174,3.23369 12.86496,12.48821 a 4.2764187,4.3667658 0 0 1 2.17078,-0.60384 4.2764187,4.3667658 0 0 1 4.27665,4.36652 4.2764187,4.3667658 0 0 1 -0.48904,2.02356 l 10.02799,9.73356 38.39525,-0.13725 a 4.2764187,4.3667658 0 0 1 4.05713,-2.98668 4.2764187,4.3667658 0 0 1 4.27665,4.36649 4.2764187,4.3667658 0 0 1 -4.27665,4.3665 4.2764187,4.3667658 0 0 1 -4.0147,-2.8694 l -39.59043,0.12225 -0.002,-0.0425 -0.0375,0.0399 -10.91874,-10.61186 a 4.2764187,4.3667658 0 0 1 -1.70419,0.3618 4.2764187,4.3667658 0 0 1 -4.27668,-4.36649 4.2764187,4.3667658 0 0 1 0.27446,-1.542 l -11.01106,-10.70416 0.0375,7.07122 25.04125,23.09504 v 0.0549 h 0.0599 l 0.002,0.002 0.002,-0.002 h 52.907 v -10.77152 l -17.73548,0.0574 a 4.2764187,4.3667658 0 0 1 -4.06708,3.01662 4.2764187,4.3667658 0 0 1 -4.05959,-2.99167 l -20.23812,0.0622 -0.002,-0.0424 -0.0374,0.0399 -27.60129,-26.82527 z m 8.46103,0.008 24.67944,23.96338 19.12778,-0.0698 a 4.2764187,4.3667658 0 0 1 4.01967,-2.87192 4.2764187,4.3667658 0 0 1 4.0072,2.84197 l 17.79536,-0.0648 V 553.62685 H 311.8928 l -13.06705,-12.86247 -6.44994,-0.008 18.52643,16.49289 29.09587,-0.14221 a 4.2764187,4.3667658 0 0 1 3.98971,-2.79705 4.2764187,4.3667658 0 0 1 4.27669,4.36648 4.2764187,4.3667658 0 0 1 -4.27669,4.36899 4.2764187,4.3667658 0 0 1 -4.07956,-3.05653 l -30.15877,0.12469 -0.002,-0.0299 -21.67281,-19.32989 z m 62.18892,16.24837 a 1.6864751,1.6864751 0 0 0 -1.68672,1.68674 1.6864751,1.6864751 0 0 0 1.68672,1.68671 1.6864751,1.6864751 0 0 0 1.68674,-1.68671 1.6864751,1.6864751 0 0 0 -1.68674,-1.68674 z m -55.6342,1.54701 a 1.6864751,1.6864751 0 0 0 -1.68671,1.68671 1.6864751,1.6864751 0 0 0 1.68671,1.68673 1.6864751,1.6864751 0 0 0 1.68672,-1.68673 1.6864751,1.6864751 0 0 0 -1.68672,-1.68671 z m 41.23475,5.911 a 1.6864751,1.6864751 0 0 0 -1.68674,1.6867 1.6864751,1.6864751 0 0 0 1.68674,1.68672 1.6864751,1.6864751 0 0 0 1.6867,-1.68672 1.6864751,1.6864751 0 0 0 -1.6867,-1.6867 z m -71.09912,6.74935 a 1.6864751,1.6864751 0 0 0 -1.68671,1.68671 1.6864751,1.6864751 0 0 0 1.68671,1.68673 1.6864751,1.6864751 0 0 0 1.68672,-1.68673 1.6864751,1.6864751 0 0 0 -1.68672,-1.68671 z m 86.13484,0.33936 a 1.6864751,1.6864751 0 0 0 -1.68671,1.68669 1.6864751,1.6864751 0 0 0 1.68671,1.68423 1.6864751,1.6864751 0 0 0 1.68672,-1.68423 1.6864751,1.6864751 0 0 0 -1.68672,-1.68669 z" /><path
         id="path2"
         style="font-weight:bold;font-size:16px;font-family:Orbitron;-inkscape-font-specification:'Orbitron, Bold';fill:url(#linearGradient3)"
         d="m 1428.6695,796.49232 v 2.12785 h 4.7041 v 9.39204 h 2.128 v -9.39204 h 4.688 v -2.12785 z m 14.848,2.23988 c -0.4053,0 -0.7733,0.10134 -1.104,0.30401 -0.3307,0.20267 -0.5973,0.46934 -0.8,0.80001 -0.2027,0.33066 -0.3038,0.69868 -0.3038,1.10401 v 4.86395 c 0,0.40534 0.1011,0.77335 0.3038,1.10402 0.2027,0.33066 0.4693,0.59734 0.8,0.8 0.3307,0.20267 0.6987,0.30401 1.104,0.30401 h 7.2161 v -2.096 h -7.1359 c -0.053,0 -0.1014,-0.0159 -0.1441,-0.0479 -0.032,-0.0427 -0.048,-0.0908 -0.048,-0.14409 v -1.296 h 7.3279 v -3.488 c 0,-0.40533 -0.1014,-0.77335 -0.304,-1.10401 -0.192,-0.33067 -0.4587,-0.59734 -0.8,-0.80001 -0.3307,-0.20267 -0.6987,-0.30401 -1.104,-0.30401 z m 7.6482,0 5.104,9.28001 h 1.9198 l 5.1201,-9.28001 h -2.416 l -3.6479,6.73612 -3.6642,-6.73612 z m 14.8479,0 c -0.4053,0 -0.7733,0.10134 -1.104,0.30401 -0.3306,0.20267 -0.5973,0.46934 -0.8,0.80001 -0.2026,0.33066 -0.304,0.69868 -0.304,1.10401 v 4.86395 c 0,0.40534 0.1014,0.77335 0.304,1.10402 0.2027,0.33066 0.4694,0.59734 0.8,0.8 0.3307,0.20267 0.6987,0.30401 1.104,0.30401 h 7.2159 v -2.096 h -7.1359 c -0.053,0 -0.1014,-0.0159 -0.1441,-0.0479 -0.032,-0.0427 -0.048,-0.0908 -0.048,-0.14409 v -1.296 h 7.3279 v -3.488 c 0,-0.40533 -0.1011,-0.77335 -0.3038,-1.10401 -0.192,-0.33067 -0.4587,-0.59734 -0.8,-0.80001 -0.3307,-0.20267 -0.6987,-0.30401 -1.104,-0.30401 z m 10.9119,0 c -0.4053,0 -0.7733,0.10134 -1.104,0.30401 -0.3307,0.20267 -0.5971,0.46934 -0.7998,0.80001 -0.2027,0.33066 -0.304,0.69868 -0.304,1.10401 v 1.27997 c 0,0.40533 0.1013,0.77334 0.304,1.10401 0.2027,0.33067 0.4691,0.59734 0.7998,0.80001 0.3307,0.20266 0.6987,0.30401 1.104,0.30401 h 4.9281 c 0.053,0 0.096,0.0215 0.1281,0.0641 0.043,0.032 0.064,0.0745 0.064,0.12784 v 1.10402 c 0,0.0533 -0.021,0.10142 -0.064,0.14409 -0.032,0.032 -0.075,0.0479 -0.1281,0.0479 h -4.8479 c -0.053,0 -0.1014,-0.0159 -0.1441,-0.0479 -0.032,-0.0427 -0.048,-0.0908 -0.048,-0.14409 v -0.27195 h -2.096 v 0.3519 c 0,0.40534 0.1013,0.77335 0.304,1.10402 0.2027,0.33066 0.4691,0.59734 0.7998,0.8 0.3307,0.20267 0.6987,0.30401 1.104,0.30401 h 5.0081 c 0.416,0 0.7893,-0.10134 1.12,-0.30401 0.3307,-0.20266 0.5973,-0.46934 0.8,-0.8 0.2027,-0.33067 0.304,-0.69868 0.304,-1.10402 v -1.27996 c 0,-0.40534 -0.1013,-0.77335 -0.304,-1.10402 -0.2027,-0.33066 -0.4693,-0.59734 -0.8,-0.8 -0.3307,-0.20267 -0.704,-0.30401 -1.12,-0.30401 h -4.9279 c -0.053,0 -0.1014,-0.0159 -0.1441,-0.0479 -0.032,-0.0427 -0.048,-0.0908 -0.048,-0.1441 v -1.10401 c 0,-0.0533 0.016,-0.0958 0.048,-0.12785 0.043,-0.0427 0.091,-0.0641 0.1441,-0.0641 h 4.8479 c 0.053,0 0.096,0.0215 0.1281,0.0641 0.043,0.032 0.064,0.0745 0.064,0.12785 v 0.27216 h 2.112 v -0.35212 c 0,-0.40533 -0.1013,-0.77335 -0.304,-1.10401 -0.2027,-0.33067 -0.4693,-0.59734 -0.8,-0.80001 -0.3307,-0.20267 -0.704,-0.30401 -1.12,-0.30401 z m -33.3278,2.096 h 4.8479 c 0.053,0 0.096,0.0215 0.1281,0.0641 0.043,0.032 0.064,0.0745 0.064,0.12785 v 1.52005 h -5.2319 v -1.52005 c 0,-0.0533 0.016,-0.0958 0.048,-0.12785 0.043,-0.0427 0.091,-0.0641 0.1441,-0.0641 z m 22.4959,0 h 4.8479 c 0.053,0 0.096,0.0215 0.1281,0.0641 0.043,0.032 0.064,0.0745 0.064,0.12785 v 1.52005 h -5.2319 v -1.52005 c 0,-0.0533 0.016,-0.0958 0.048,-0.12785 0.043,-0.0427 0.091,-0.0641 0.1441,-0.0641 z m 14.4122,7.75021 v 6.07805 h 0.7344 v -3.25788 c 0.2005,-0.15365 0.4103,-0.27981 0.629,-0.37877 0.2187,-0.099 0.4283,-0.14843 0.6288,-0.14843 0.1954,0 0.3541,0.0272 0.4765,0.0819 0.1222,0.0521 0.2159,0.13288 0.2813,0.24226 0.063,0.0989 0.1056,0.237 0.1289,0.41408 0.023,0.17448 0.035,0.362 0.035,0.56252 v 2.48431 h 0.7344 l 2e-4,-2.83209 c 0,-0.53385 -0.1238,-0.94259 -0.3712,-1.22644 -0.2474,-0.28386 -0.6068,-0.42579 -1.0782,-0.42579 -0.2578,0 -0.5091,0.0534 -0.7539,0.16013 -0.2448,0.10677 -0.4818,0.25518 -0.7109,0.44529 v -2.19915 z m -13.7266,0.26154 v 0.68755 h 2.078 v 5.12896 h 0.7734 v -5.12896 h 2.0782 v -0.68755 z m 6.6052,1.33197 c -0.6354,0 -1.1483,0.20977 -1.5389,0.62904 -0.388,0.41927 -0.582,0.98571 -0.582,1.69925 0,0.72136 0.2031,1.2785 0.6093,1.67174 0.4063,0.39062 0.9714,0.58591 1.6954,0.58591 0.2838,0 0.5545,-0.035 0.8123,-0.1053 0.2578,-0.0703 0.5106,-0.15759 0.758,-0.26176 v -0.80087 h -0.039 c -0.1276,0.11458 -0.3425,0.23189 -0.6446,0.35168 -0.2995,0.11719 -0.5977,0.17573 -0.8945,0.17573 -0.224,0 -0.4298,-0.0314 -0.6174,-0.0938 -0.1848,-0.0625 -0.3449,-0.15605 -0.4804,-0.28105 -0.1406,-0.1276 -0.2512,-0.29049 -0.3319,-0.48841 -0.081,-0.20052 -0.1211,-0.43491 -0.1211,-0.70314 h 3.2147 v -0.39849 c 0,-0.63281 -0.1601,-1.12104 -0.4804,-1.4648 -0.3177,-0.34374 -0.7709,-0.51571 -1.3595,-0.51571 z m 4.7814,0.0197 c -0.6432,0 -1.1615,0.20307 -1.5547,0.60932 -0.3907,0.40625 -0.5859,0.96621 -0.5859,1.67975 0,0.38281 0.052,0.71745 0.1562,1.00391 0.1041,0.28646 0.2513,0.52344 0.4414,0.71094 0.1875,0.1875 0.4128,0.32815 0.6758,0.42189 0.263,0.0912 0.5521,0.13673 0.8672,0.13673 0.2474,0 0.4805,-0.0326 0.6993,-0.0977 0.2213,-0.0651 0.4542,-0.15628 0.699,-0.27346 v -0.80867 h -0.039 c -0.055,0.0443 -0.1288,0.0979 -0.2225,0.16034 -0.094,0.0599 -0.194,0.11717 -0.3008,0.17184 -0.1224,0.0625 -0.2604,0.11326 -0.4141,0.15233 -0.1536,0.0391 -0.3046,0.0585 -0.4531,0.0585 -0.427,0 -0.7591,-0.14064 -0.9961,-0.42189 -0.2343,-0.28386 -0.3515,-0.6887 -0.3515,-1.21474 0,-0.54167 0.1198,-0.95191 0.3593,-1.23056 0.2422,-0.28125 0.5717,-0.42189 0.9883,-0.42189 0.2266,0 0.4584,0.0469 0.6954,0.14063 0.2396,0.0938 0.4712,0.22791 0.6951,0.40239 h 0.039 v -0.81647 c -0.2005,-0.10156 -0.4217,-0.18733 -0.6639,-0.25764 -0.2396,-0.0703 -0.4844,-0.10553 -0.7344,-0.10553 z m -4.8204,0.58592 c 0.3906,0 0.681,0.10543 0.8711,0.31636 0.1953,0.21094 0.293,0.50907 0.293,0.89448 h -2.4999 c 0.031,-0.34375 0.1627,-0.6315 0.3945,-0.86328 0.2344,-0.23176 0.5481,-0.34756 0.9413,-0.34756 z"
         transform="matrix(9.0136185,0,0,9.0136185,-12510.656,-6715.0025)" /><rect
         style="fill:none;fill-opacity:1;stroke:none;stroke-width:1.91588;stroke-dasharray:none;stroke-opacity:1"
         id="rect2"
         width="954.59418"
         height="391.73715"
         x="53.740116"
         y="330.92599" /></g></g></svg>
